# xmcd CD database generated by RipIT
#
# Track frame offsets:
# 150
# 19526
# 38239
# 62014
# 77432
# 107466
# 129357
# 145835
# 164548
# 178833
#
# Disc length: 2659 seconds
#
# Revision: 0
# Processed by: cddbd v1.5.2PL0 Copyright (c) Steve Scherf et al.
# Submitted via: RipIT 3.7.0-beta20090308 www.suwald.com/ripit/ripit.html on 2009-04-23 at 20:49
#
DISCID=780a610a
DTITLE=Peter Bruntnell - Peter and the murder of crows
DYEAR=2008
DGENRE=folk
TTITLE0=False_start
TTITLE1=Domestico
TTITLE2=John
TTITLE3=Clothes_of_winter
TTITLE4=Cold_water_swimmer
TTITLE5=Devils_good_son
TTITLE6=Lowlife
TTITLE7=Hash_dream_craving
TTITLE8=Sea_of_Japan
TTITLE9=Bluebeard
EXTD=
EXTT0=
EXTT1=
EXTT2=
EXTT3=
EXTT4=
EXTT5=
EXTT6=
EXTT7=
EXTT8=
EXTT9=
PLAYORDER=
